<?xml version="1.0" encoding="UTF-8" standalone="no"?>
<svg width="13px" height="16px" viewBox="0 0 13 16" version="1.1" xmlns="http://www.w3.org/2000/svg" xmlns:xlink="http://www.w3.org/1999/xlink" xmlns:sketch="http://www.bohemiancoding.com/sketch/ns">
    <!-- Generator: Sketch 3.3.3 (12081) - http://www.bohemiancoding.com/sketch -->
    <title>hangout 2</title>
    <desc>Created with Sketch.</desc>
    <defs></defs>
    <g id="Page-1" stroke="none" stroke-width="1" fill="none" fill-rule="evenodd" sketch:type="MSPage">
        <g id="Inventory" sketch:type="MSArtboardGroup" transform="translate(-26.000000, -4.000000)" fill="#FFFFFF">
            <g id="Hangouts-Bar-Full" sketch:type="MSLayerGroup">
                <g id="hangout-2" transform="translate(26.833333, 4.500000)" sketch:type="MSShapeGroup">
                    <path d="M6.07142857,0 C2.71428571,0 0,2.71428571 0,6.07142857 C0,9.42857143 2.71428571,12.1428571 6.07142857,12.1428571 L6.42857143,12.1428571 L6.42857143,14.6428571 C9.92857143,13 12.1428571,9.28571429 12.1428571,6.07142857 C12.1428571,2.71428571 9.42857143,0 6.07142857,0 L6.07142857,0 Z M5.71428571,6.42857143 L5,7.85714286 L3.92857143,7.85714286 L4.64285714,6.42857143 L3.57142857,6.42857143 L3.57142857,4.28571429 L5.71428571,4.28571429 L5.71428571,6.42857143 L5.71428571,6.42857143 Z M8.57142857,6.42857143 L7.85714286,7.85714286 L6.78571429,7.85714286 L7.5,6.42857143 L6.42857143,6.42857143 L6.42857143,4.28571429 L8.57142857,4.28571429 L8.57142857,6.42857143 L8.57142857,6.42857143 Z" id="Shape"></path>
                </g>
            </g>
        </g>
    </g>
</svg>